<svg xmlns="http://www.w3.org/2000/svg" height="183.321" width="142.694"><path d="M100.474 18.905a57.17 57.17 0 01-7.258-.893 55.772 55.772 0 00-6.929-.862q-.639-.024-1.208-.025c-2.693 0-4.253.428-5.247 1.4-1.049 1.03-1.509 2.794-1.449 5.55.054 2.482.587 10.623 5.186 11.191a11.659 11.659 0 005.193-1.065.439.439 0 01.167-.33 3.229 3.229 0 001.1-1.92 8.594 8.594 0 00.056-2.412 17.274 17.274 0 00-.312-2.494 38.662 38.662 0 00-.564-2.506 16.452 16.452 0 011.1 2.357 14.3 14.3 0 01.7 2.541 7.907 7.907 0 01-.1 2.7 4.7 4.7 0 01-.518 1.38c1.669-.744 3.366-1.617 4.914-2.415 1.28-.66 2.489-1.284 3.465-1.715l.5-.219c2.238-.976 3.471-1.513 3.693-4.063.148-1.762-.9-5.19-2.489-6.2zM39.509 14.301c.471.47 1.1 1.188 1.822 2.018 2.925 3.35 7.822 8.96 11.412 8.481 4.567-.6 9.677-8.752 9.239-12.112-.41-3.143-14.125-7.908-19.473-7.908-1.011 0-2.058 1.074-2.8 2.873-1.07 2.582-1.162 5.688-.2 6.648zM95.468 161.925a5.217 5.217 0 00-3.96-.385 6.213 6.213 0 00-2.271 1.923 11.825 11.825 0 01-1.431 1.458 29.545 29.545 0 01-7.459 4.071c-7.221 2.9-16.25 2.158-23.562-1.934-6.627-3.709-10.915-9.5-12.073-16.312a22.24 22.24 0 013.884-17.346 25.131 25.131 0 0117.018-9.612c1.04-.137 2.033-.187 2.993-.235 2.117-.1 3.945-.2 4.807-1.252.629-.771.791-2.094.493-4.047-.416-2.729-1.215-6.526-3.351-7.992a3.992 3.992 0 00-3.274-.506c-2.792.614-5.913 2.867-9.216 5.252-6.609 4.772-14.1 10.181-20.5 2.621-2.067-2.443-4.675-8.633-4.785-8.9a.429.429 0 01-.024-.073c-.018-.079-1.89-7.954-6.607-9.3a5.122 5.122 0 00-1.41-.195c-2.25 0-4.787 1.406-7.563 4.2a3.9 3.9 0 00-1.353 3.06c.188 2.7 3.721 5.381 6.3 7.338 3.7 2.807 8.148 6.873 9.723 13.462 1.185 4.956 1.283 10.005 1.377 14.888.132 6.861.257 13.342 3.1 19.739 7.906 17.8 24.379 20.646 36.8 19.9 8.185-.493 22.525-2.237 26.6-8.378a6.838 6.838 0 00.564-6.343 9.872 9.872 0 00-4.82-5.102z" fill="#cedd3e"/><path d="M97.158 100.639c17.069-13.733 25.547-27.377 30.241-48.663 2.416-10.956-.732-20.323-9.355-27.841-4.229-3.687-8.486-3.661-13.873-3.628l-1.343.005a10.08 10.08 0 011.025 4.68c-.018.2-.043.4-.073.582 2.621.071 6.926.692 9.922 3.689 4.207 4.21 5.073 9.363 5.078 15.8.015 17.946-11.565 38.1-30.974 53.921-1.286 1.047-2.81 2.219-4.423 3.46-3.943 3.033-8.412 6.47-10.254 8.8a.435.435 0 01-.242.146 18.116 18.116 0 011.8 5.823c2.816-1.981 15.909-11.494 22.471-16.774zM23.746 98.351a203.044 203.044 0 01-11.5-39.086c-1.805-10.1-3.208-24.026.359-33.02 2.595-6.541 8.268-14.251 15.092-16.726a12.569 12.569 0 0110.393.648 12.71 12.71 0 01.787-2.858 7.212 7.212 0 011.668-2.568.445.445 0 01-.582-.053 10.4 10.4 0 00-8.827-3.1c-8.817.686-18.963 8.793-22.606 14.135-12.724 18.658-5.091 49.37-1.219 61.709a153.392 153.392 0 009.68 24.861c2.397-2.305 4.658-3.623 6.755-3.942zM121.247 118.348a19.991 19.991 0 00-14.523 33.734 45.147 45.147 0 008.119-10.321 7.578 7.578 0 116.888 4.43c-.164 0-.324-.014-.485-.024a.444.444 0 01-.147.207c-2.318 1.706-4.071 4.194-5.926 6.828-.768 1.089-1.553 2.2-2.386 3.258a19.789 19.789 0 008.46 1.882 20 20 0 000-39.994z" fill="#e6e7e8"/><path d="M122.218 148.244a8.665 8.665 0 10-8.665-8.665 8.675 8.675 0 008.665 8.665z" fill="#a7a9ac"/><path d="M120.112 146.013a7.6 7.6 0 01-4.764-3.326 46.777 46.777 0 01-8.117 10.156.435.435 0 01-.124.277.441.441 0 01-.291.127c-.621.585-1.356 1.241-2.136 1.937-2.528 2.253-5.644 5.034-6.825 7.188a10.373 10.373 0 013.193 4.146 40.649 40.649 0 007.61-6.827c.547-.587 1.019-1.094 1.421-1.5a42 42 0 004.359-5.51 31.975 31.975 0 015.674-6.668z" fill="#e6e7e8"/><path d="M121.731 145.292a6.684 6.684 0 10-6.684-6.684 6.692 6.692 0 006.684 6.684z" fill="#e6e7e8"/><path d="M120.489 146.864a31.9 31.9 0 00-5.316 6.34c-.768 1.089-1.553 2.2-2.386 3.258a20.019 20.019 0 001.978.8l7.451-10.038zM128.167 44.027c-2.53 10.711-6.09 21.2-11.587 30.773a73.079 73.079 0 01-11.7 15.424 154.878 154.878 0 01-15.214 12.789 166.96 166.96 0 00-15.293 12.8c.118.539.219 1.078.307 1.605 2.82-1.989 15.913-11.5 22.475-16.782 17.069-13.733 25.547-27.377 30.241-48.663a31.448 31.448 0 00.771-7.946zM38.518 8.312c-6.462-2.116-12.933-.451-18.239 4.118A37.741 37.741 0 009.242 29.698c-2.246 7.592-.93 15.615.684 23.191a146.3 146.3 0 004.229 15.52 166.73 166.73 0 01-1.914-9.144c-1.805-10.1-3.208-24.026.359-33.02 2.595-6.541 8.268-14.251 15.092-16.726a12.569 12.569 0 0110.393.648 13.062 13.062 0 01.433-1.855z" fill="#a7a9ac"/><path d="M48.596 133.4a25.131 25.131 0 0117.018-9.612c1.04-.137 2.033-.187 2.993-.235 2.117-.1 3.945-.2 4.807-1.252.629-.771.791-2.094.493-4.047a25.612 25.612 0 00-.989-4.343 4.11 4.11 0 00.132 2.156 3.959 3.959 0 01-2.815 5.207c-2.108.491-4.457.356-6.611.68a25.18 25.18 0 00-6.924 2.084 21.667 21.667 0 00-12.065 18.776 21.5 21.5 0 013.961-9.414z" fill="#b5c933"/><path d="M100.284 167.033a8.794 8.794 0 00-2.072-3.129 9.61 9.61 0 01-1.986 6.746c-2.1 2.883-5.547 4.543-8.868 5.567a56.514 56.514 0 01-23.478 1.985 32.17 32.17 0 01-20.006-10.026c-4.974-5.5-7.635-12.62-8.59-19.891a68.661 68.661 0 00-2.237-11.918c.1 1.931.14 3.853.177 5.749.132 6.861.257 13.342 3.1 19.739 7.906 17.8 24.379 20.646 36.8 19.9 8.185-.493 22.525-2.237 26.6-8.378a6.838 6.838 0 00.56-6.344zM79.934 32.164a4.819 4.819 0 003.635 3.109 11.659 11.659 0 005.193-1.065.439.439 0 01.167-.33 3.229 3.229 0 001.1-1.92 6.493 6.493 0 00.1-1.728c-2.705.978-6.892 2.491-10.195 1.934zM98.766 29.396l.5-.219c2.238-.976 3.471-1.513 3.693-4.063a7.724 7.724 0 00-.314-2.528c-.345 1.773-2.9 3.024-4.275 3.811a52.259 52.259 0 01-7.325 3.478 8.072 8.072 0 01-.138 2.271 4.7 4.7 0 01-.518 1.38c1.669-.744 3.366-1.617 4.914-2.415 1.278-.66 2.487-1.284 3.463-1.715zM61.724 14.854c-1.707 3.1-4.035 5.881-7.678 5.874-6.262-.014-10.886-5.926-14.945-9.913-.059-.059-.121-.108-.181-.162-.2 1.619-.011 3.05.589 3.648.471.47 1.1 1.188 1.822 2.018 2.925 3.35 7.822 8.96 11.412 8.481 3.759-.497 7.883-6.104 8.981-9.946z" fill="#b5c933"/><g fill="none" stroke="#3e4147" stroke-linecap="round" stroke-linejoin="round" stroke-width="2" transform="translate(-3674.782 -1533.936)"><path d="M3717.291 1538.266c-3.317 0-5.312 8.3-3.317 10.29 2.374 2.368 8.857 11.255 13.61 10.626s10.106-8.933 9.626-12.616-14.791-8.3-19.919-8.3zM3775.388 1552.4c-4.9-.167-9.536-1.573-14.3-1.759-5.93-.232-8.509 1.024-8.371 7.389.082 3.741.974 11.058 5.58 11.627 4.114.508 11.551-4.194 15.434-5.91 2.559-1.131 4.2-1.638 4.458-4.653.16-1.871-.914-5.622-2.801-6.694zM3763.988 1568.166c2.541-1.982 1.065-7.071 0-9.686"/><circle cx="3796.513" cy="1672.544" r="7.134"/><path d="M3781.572 1686.738a20.382 20.382 0 115.308 3.833M3707.977 1642.495s-4.107-17.814-16.337-5.508c-4.1 4.126 1.149 8.156 4.994 11.073 4.594 3.485 8.174 7.417 9.558 13.208 2.777 11.616-.482 23.483 4.5 34.706 6.917 15.575 20.917 21.148 37.237 20.165 7.449-.449 32.055-2.58 27.56-15.32-1.178-3.337-5.75-7.08-9.354-5.766-1.557.568-2.537 2.419-3.829 3.453a28.692 28.692 0 01-7.345 4.005c-13.682 5.493-32.407-2.516-35.025-17.9-2.373-13.947 7.316-24.7 20.518-26.437 5.16-.679 9.721.8 8.678-6.048-.655-4.3-2.065-9.991-7.165-8.869-8.665 1.9-20.088 18.877-29.277 8.021-2.045-2.422-4.713-8.783-4.713-8.783z"/><path d="M3790.126 1675.728a45.913 45.913 0 01-8.765 11.061c-2.723 2.58-7.843 6.639-9.271 9.588M3795.615 1679.948c-4.162 3.063-6.6 8.662-10.436 12.5-1.883 1.886-5.526 6.3-9.392 8.559M3715.072 1538.316c-8.622-9.182-26.583 2.955-32.132 11.091-11.514 16.884-7 43.874-1.277 62.1a153.659 153.659 0 009.977 25.483"/><path d="M3712.981 1544.664c-10.9-5.914-21.315 5.947-25.177 15.683-6.051 15.258 1.374 48.039 11.357 72.307M3778.013 1560.151c3.338 0 7.417.829 10.153 3.566 4.288 4.29 4.942 9.557 4.947 15.487.016 20.981-15.186 40.84-30.809 53.572-4.5 3.667-12.122 9.011-14.746 12.333"/><path d="M3777.43 1554c6.012 0 10.926-.421 15.692 3.733 5.744 5.008 12.687 13.817 9.5 28.277-4.834 21.925-13.685 35.469-30.4 48.916-7.283 5.86-23.3 17.455-23.089 17.2"/></g></svg>
